<svg xmlns="http://www.w3.org/2000/svg" version="1.1"
     width="1000" height="623" viewBox="0 0 1000 623">
    <g transform="matrix(1,0,0,1,-0.6060606060606233,0.2522267206477409)">
        <svg viewBox="0 0 396 247" data-background-color="#000000" preserveAspectRatio="xMidYMid meet" height="623"
             width="1000" xmlns="http://www.w3.org/2000/svg">
            <defs></defs>
            <g id="tight-bounds" transform="matrix(1,0,0,1,0.2400000000000091,-0.09999999999999432)">
                <svg viewBox="0 0 395.52 247.2" height="247.2" width="395.52">
                    <g>
                        <svg></svg>
                    </g>
                    <g>
                        <svg viewBox="0 0 395.52 247.2" height="247.2" width="395.52">
                            <g transform="matrix(1,0,0,1,75.54432,93.76782614173227)">
                                <svg viewBox="0 0 244.43135999999998 59.66434771653544" height="59.66434771653544"
                                     width="244.43135999999998">
                                    <g>
                                        <svg viewBox="0 0 244.43135999999998 59.66434771653544"
                                             height="59.66434771653544" width="244.43135999999998">
                                            <g>
                                                <svg viewBox="0 0 244.43135999999998 59.66434771653544"
                                                     height="59.66434771653544" width="244.43135999999998">
                                                    <g>
                                                        <svg viewBox="0 0 244.43135999999998 59.66434771653544"
                                                             height="59.66434771653544" width="244.43135999999998">
                                                            <g>
                                                                <svg viewBox="0 0 244.43135999999998 59.66434771653544"
                                                                     height="59.66434771653544"
                                                                     width="244.43135999999998">
                                                                    <g>
                                                                        <svg viewBox="0 0 244.43135999999998 59.66434771653544"
                                                                             height="59.66434771653544"
                                                                             width="244.43135999999998">
                                                                            <g transform="matrix(1,0,0,1,0,0)">
                                                                                <svg width="244.43135999999998"
                                                                                     viewBox="4.650000095367432 -32.099998474121094 133.3400115966797 32.54999923706055"
                                                                                     height="59.66434771653544"
                                                                                     data-palette-color="#ffffff">
                                                                                    <path d="M18.1-16.7Q24.9-15.35 24.9-8.95L24.9-8.95Q24.9-4.4 21.6-2.1 18.3 0.2 11.75 0.2L11.75 0.2Q7.35 0.2 4.7 0L4.7 0 4.65 0 4.9-9.65 4.65-32.05 13.55-32.1Q18.05-32.1 20.48-30.1 22.9-28.1 22.9-24.3L22.9-24.3Q22.9-21.6 21.65-19.65 20.4-17.7 18.1-16.7L18.1-16.7ZM18.8-23.85Q18.8-26.45 17.38-27.63 15.95-28.8 12.75-28.8L12.75-28.8 8.7-28.8 8.6-18.05 14.1-17.9Q18.8-19 18.8-23.85L18.8-23.85ZM12.35-3.15Q16.45-3.15 18.65-4.7 20.85-6.25 20.85-9.15L20.85-9.15Q20.85-14.05 14.7-14.75L14.7-14.75 8.55-14.7 8.5-10 8.65-3.3Q10.6-3.15 12.35-3.15L12.35-3.15ZM44.55-3.15L44.75-2.8 44.5 0 31.25 0 31.4-7.5 31.25-24.9 35-24.9 34.85-7.8 34.95-3.15 44.55-3.15ZM58.25-25.2Q63.7-25.2 66.62-22 69.55-18.8 69.55-12.95L69.55-12.95Q69.55-6.6 66.42-3.13 63.3 0.35 57.5 0.35L57.5 0.35Q52.1 0.35 49.15-2.93 46.2-6.2 46.2-12.25L46.2-12.25Q46.2-18.45 49.35-21.83 52.5-25.2 58.25-25.2L58.25-25.2ZM57.9-22.05Q53.95-22.05 52.02-19.8 50.1-17.55 50.1-12.7L50.1-12.7Q50.1-7.5 52-5.15 53.9-2.8 57.8-2.8L57.8-2.8Q61.8-2.8 63.75-5.1 65.7-7.4 65.7-12.3L65.7-12.3Q65.7-17.35 63.77-19.7 61.85-22.05 57.9-22.05L57.9-22.05ZM85.99-25.15Q90.14-25.15 93.19-23.4L93.19-23.4 92.49-19.95 92.04-19.8Q90.79-20.85 89.14-21.45 87.49-22.05 85.59-22.05L85.59-22.05Q81.89-22.05 79.94-19.68 77.99-17.3 77.99-12.6L77.99-12.6Q77.99-7.85 79.94-5.35 81.89-2.85 85.59-2.85L85.59-2.85Q87.39-2.85 89.22-3.48 91.04-4.1 92.49-5.15L92.49-5.15 92.94-5 92.59-1.55Q89.19 0.3 85.44 0.3L85.44 0.3Q79.94 0.3 76.99-2.98 74.04-6.25 74.04-12.3L74.04-12.3Q74.04-18.45 77.17-21.8 80.29-25.15 85.99-25.15L85.99-25.15ZM118.04-24.95L107.44-13.25Q112.74-6.75 118.69-0.85L118.69-0.85 118.59-0.3Q117.04 0.2 114.99 0.45L114.99 0.45 114.39 0.2Q107.99-7 103.34-13L103.34-13 103.34-13.3 111.94-22.7 113.59-24.9 118.04-24.95ZM103.09-24.9L102.94-7.8 103.04 0 99.34 0 99.49-7.5 99.34-24.9 103.09-24.9ZM131.19-25.15Q134.24-25.15 137.29-23.95L137.29-23.95 136.64-20.25 136.04-20.1Q134.64-21.2 133.39-21.73 132.14-22.25 130.79-22.25L130.79-22.25Q128.64-22.25 127.39-21.13 126.14-20 126.14-18.55L126.14-18.55Q126.14-17.1 127.36-16.2 128.59-15.3 131.14-14.2L131.14-14.2Q133.39-13.2 134.71-12.4 136.04-11.6 137.01-10.28 137.99-8.95 137.99-7.05L137.99-7.05Q137.99-5.1 136.94-3.43 135.89-1.75 133.86-0.73 131.84 0.3 129.04 0.3L129.04 0.3Q127.29 0.3 125.36-0.13 123.44-0.55 121.79-1.4L121.79-1.4 122.24-5.35 122.74-5.55Q124.14-4.15 126.01-3.38 127.89-2.6 129.49-2.6L129.49-2.6Q131.59-2.6 132.94-3.73 134.29-4.85 134.29-6.45L134.29-6.45Q134.29-7.95 133.06-8.85 131.84-9.75 129.24-10.95L129.24-10.95Q127.09-11.9 125.71-12.7 124.34-13.5 123.39-14.83 122.44-16.15 122.44-18.05L122.44-18.05Q122.44-20.05 123.51-21.65 124.59-23.25 126.56-24.2 128.54-25.15 131.19-25.15L131.19-25.15Z"
                                                                                          opacity="1"
                                                                                          transform="matrix(1,0,0,1,0,0)"
                                                                                          fill="#ffffff"
                                                                                          class="undefined-text-0"
                                                                                          data-fill-palette-color="primary"
                                                                                          id="text-0"></path>
                                                                                </svg>
                                                                            </g>
                                                                        </svg>
                                                                    </g>
                                                                </svg>
                                                            </g>
                                                        </svg>
                                                    </g>
                                                </svg>
                                            </g>
                                        </svg>
                                    </g>
                                </svg>
                            </g>
                            <path d="M197.195 87.768L197.195 28.985 386.426 28.985 386.426 218.215 197.195 218.215 197.195 159.432 202.576 159.432 202.576 212.835 381.045 212.835 381.045 34.365 202.576 34.365 202.576 87.768Z"
                                  fill="#ffffff" stroke="transparent" data-fill-palette-color="primary"></path>
                        </svg>
                    </g>
                </svg>
                <rect width="395.52" height="247.2" fill="none" stroke="none" visibility="hidden"></rect>
            </g>
        </svg>
    </g>
</svg>